# xmcd
# 
# Track frame offsets:
#     150
#     68447
#     110580
#     155922
#     195147
#     242105
#     285497
# 
# Disc length: 4273
# 
# Revision: 0
# Processed by: cddbd v1.5.2PL0 Copyright (c) Steve Scherf et al.
# Submitted via: BonkEnc v1.0.6
# 
DISCID=5810af07
DTITLE=Tolstoi Leo - Krieg und Frieden 38
DYEAR=0
DGENRE=Speech
TTITLE0=3801
TTITLE1=3802
TTITLE2=3803
TTITLE3=3804
TTITLE4=3805
TTITLE5=3806
TTITLE6=3807
EXTD=
EXTT0=
EXTT1=
EXTT2=
EXTT3=
EXTT4=
EXTT5=
EXTT6=
PLAYORDER=
